<svg xmlns="http://www.w3.org/2000/svg" xmlns:xlink="http://www.w3.org/1999/xlink" width="106.246" height="84.999" viewBox="0 0 106.246 84.999">
  <defs>
    <linearGradient id="linear-gradient" x1="0.904" y1="0.115" x2="0.098" y2="0.876" gradientUnits="objectBoundingBox">
      <stop offset="0" stop-color="#00dcff"/>
      <stop offset="0.218" stop-color="#36bbfd"/>
      <stop offset="0.561" stop-color="#7395fb"/>
      <stop offset="0.825" stop-color="#0067ff"/>
      <stop offset="1" stop-color="#295eff"/>
    </linearGradient>
  </defs>
  <path id="Icon_awesome-tablets" data-name="Icon awesome-tablets" d="M26.562,31.875A26.779,26.779,0,0,0,.017,54.237a1.377,1.377,0,0,0,1.378,1.544H51.745a1.377,1.377,0,0,0,1.378-1.544A26.809,26.809,0,0,0,26.562,31.875ZM51.729,61.093H1.395A1.377,1.377,0,0,0,.017,62.637,26.779,26.779,0,0,0,26.562,85,26.779,26.779,0,0,0,53.106,62.637a1.377,1.377,0,0,0-1.378-1.544ZM98.51,7.737A26.522,26.522,0,0,0,64.163,5.081a1.352,1.352,0,0,0-.133,2.042L99.108,42.218a1.351,1.351,0,0,0,2.042-.133A26.5,26.5,0,0,0,98.51,7.737ZM60.261,10.908a1.351,1.351,0,0,0-2.042.133A26.464,26.464,0,0,0,95.206,48.028a1.352,1.352,0,0,0,.133-2.042Z" transform="translate(0 0.001)" fill="url(#linear-gradient)"/>
</svg>
