<svg xmlns="http://www.w3.org/2000/svg" xmlns:xlink="http://www.w3.org/1999/xlink" width="81.634" height="81.634" viewBox="0 0 81.634 81.634">
  <defs>
    <linearGradient id="linear-gradient" x1="0.5" x2="0.5" y2="1" gradientUnits="objectBoundingBox">
      <stop offset="0" stop-color="#00dcff"/>
      <stop offset="0.59" stop-color="#0072ff"/>
      <stop offset="1" stop-color="#295eff"/>
      <stop offset="1" stop-color="#000650"/>
    </linearGradient>
  </defs>
  <g id="Icon_ionic-ios-chatbubbles" data-name="Icon ionic-ios-chatbubbles" transform="translate(-3.375 -3.375)">
    <path id="Path_2" data-name="Path 2" d="M69.932,56.869a4.754,4.754,0,0,1,.648-2.394,6.608,6.608,0,0,1,.412-.608,31.8,31.8,0,0,0,5.416-17.72C76.467,18.053,61.2,3.375,42.322,3.375c-16.464,0-30.2,11.2-33.419,26.08a31.535,31.535,0,0,0-.726,6.711A33.288,33.288,0,0,0,41.733,69.349,40.413,40.413,0,0,0,51,67.838c2.217-.608,4.415-1.413,4.984-1.629a5.188,5.188,0,0,1,1.825-.334,5.1,5.1,0,0,1,1.982.392l11.126,3.944a2.653,2.653,0,0,0,.765.2,1.562,1.562,0,0,0,1.57-1.57,2.521,2.521,0,0,0-.1-.53Z" transform="translate(8.6 0)" fill="url(#linear-gradient)"/>
    <path id="Path_3" data-name="Path 3" d="M56.456,53.915c-.706.2-1.609.412-2.59.628a36.219,36.219,0,0,1-6.672.883A33.288,33.288,0,0,1,13.638,22.243a37.1,37.1,0,0,1,.294-4.2c.118-.844.255-1.688.451-2.512.2-.883.432-1.766.687-2.63L13.5,14.3A29.2,29.2,0,0,0,3.375,36.254,28.878,28.878,0,0,0,8.242,52.345c.451.687.706,1.217.628,1.57S6.534,66.082,6.534,66.082a1.574,1.574,0,0,0,.53,1.511,1.6,1.6,0,0,0,1,.353,1.408,1.408,0,0,0,.569-.118l11.009-4.337A3.067,3.067,0,0,1,22,63.531a33.027,33.027,0,0,0,11.911,2.355A30.82,30.82,0,0,0,57.477,55.073s.628-.863,1.354-1.884C58.1,53.444,57.281,53.7,56.456,53.915Z" transform="translate(0 17.062)" fill="url(#linear-gradient)"/>
  </g>
</svg>
