<svg xmlns="http://www.w3.org/2000/svg" xmlns:xlink="http://www.w3.org/1999/xlink" width="94.857" height="92.634" viewBox="0 0 94.857 92.634">
  <defs>
    <linearGradient id="linear-gradient" x1="0.5" x2="0.5" y2="1" gradientUnits="objectBoundingBox">
      <stop offset="0" stop-color="#00dcff"/>
      <stop offset="0.615" stop-color="#009fff"/>
      <stop offset="1" stop-color="#295eff"/>
    </linearGradient>
  </defs>
  <path id="Icon_metro-injection" data-name="Icon metro-injection" d="M79.727,26.593a3.278,3.278,0,0,1,0,4.641c-1.283,1.28-2.325,2.322-2.325,2.322l2.325,2.322a6.567,6.567,0,0,1,0,9.284L44.914,79.968a6.561,6.561,0,0,1-9.284,0l-2.322-2.322-9.281,9.288,4.641,4.641a3.281,3.281,0,0,1-4.641,4.641L5.458,77.643A3.281,3.281,0,0,1,10.1,73l4.641,4.641,9.284-9.281L21.7,66.04a6.556,6.556,0,0,1,0-9.281L56.518,21.949a6.556,6.556,0,0,1,9.281,0l2.322,2.322,2.322-2.322a3.278,3.278,0,0,1,4.641,0l1.161,1.161L94.813,4.541V9.182L78.566,25.429l1.161,1.164ZM63.48,24.271a3.278,3.278,0,0,0-4.641,0l-6.963,6.963,4.641,4.641L54.2,38.2l-4.641-4.641-6.963,6.963,4.641,4.644-2.322,2.322L40.267,42.84l-2.322,2.322,9.284,9.281-2.322,2.322-9.284-9.281L28.667,54.44l9.281,9.281-2.322,2.322-9.281-9.281-2.322,2.322a3.278,3.278,0,0,0,0,4.641L37.949,77.65a3.276,3.276,0,0,0,4.644,0L77.4,42.84a3.272,3.272,0,0,0,0-4.641L63.48,24.271ZM54.2,28.912l2.322-2.322L65.8,35.871,63.48,38.193Zm0,18.566-9.281-9.284,2.322-2.322,9.281,9.284ZM30.989,52.122,33.311,49.8l4.641,4.641L35.63,56.762ZM99.355,27.2a4.456,4.456,0,0,1-8.911,0c0-2.465,4.457-9.193,4.457-9.193S99.355,24.74,99.355,27.2Z" transform="translate(-4.498 -4.542)" fill="url(#linear-gradient)"/>
</svg>
